<mxfile host="Electron" modified="2024-05-28T13:22:58.546Z" agent="Mozilla/5.0 (X11; Linux x86_64) AppleWebKit/537.36 (KHTML, like Gecko) draw.io/24.4.8 Chrome/124.0.6367.207 Electron/30.0.6 Safari/537.36" etag="9N7X6fy21--WezIhNMcs" version="24.4.8" type="device">
  <diagram name="Page-1" id="f_Ob4USIwB34JZyOe8H8">
    <mxGraphModel dx="1434" dy="832" grid="1" gridSize="10" guides="1" tooltips="1" connect="1" arrows="1" fold="1" page="1" pageScale="1" pageWidth="850" pageHeight="1100" math="0" shadow="0">
      <root>
        <mxCell id="0" />
        <mxCell id="1" parent="0" />
        <mxCell id="zhX5IbNrJyvcIopZCmzf-30" value="" style="rounded=0;whiteSpace=wrap;html=1;fillColor=#dae8fc;strokeColor=#6c8ebf;" vertex="1" parent="1">
          <mxGeometry x="190" y="90" width="480" height="520" as="geometry" />
        </mxCell>
        <mxCell id="zhX5IbNrJyvcIopZCmzf-21" value="" style="rounded=0;whiteSpace=wrap;html=1;fillColor=#fff2cc;strokeColor=#d6b656;" vertex="1" parent="1">
          <mxGeometry x="190" y="340" width="480" height="270" as="geometry" />
        </mxCell>
        <mxCell id="zhX5IbNrJyvcIopZCmzf-2" value="DC-01 - poc.local&lt;div&gt;192.168.56.12&lt;/div&gt;&lt;div&gt;Windows Server 2016&lt;/div&gt;&lt;div&gt;Serveur de Fichier&lt;/div&gt;" style="sketch=0;pointerEvents=1;shadow=0;dashed=0;html=1;strokeColor=none;fillColor=#505050;labelPosition=center;verticalLabelPosition=bottom;verticalAlign=top;outlineConnect=0;align=center;shape=mxgraph.office.servers.windows_server;" vertex="1" parent="1">
          <mxGeometry x="270" y="450" width="72" height="75" as="geometry" />
        </mxCell>
        <mxCell id="zhX5IbNrJyvcIopZCmzf-4" value="PC-01 - poc.local&lt;div&gt;&lt;span style=&quot;background-color: rgb(255, 255, 255);&quot;&gt;192.168.56.13&lt;/span&gt;&lt;/div&gt;&lt;div&gt;&lt;span style=&quot;background-color: rgb(255, 255, 255);&quot;&gt;Windows 10&lt;/span&gt;&lt;/div&gt;" style="image;sketch=0;aspect=fixed;html=1;points=[];align=center;fontSize=12;image=img/lib/mscae/VirtualMachineWindows.svg;" vertex="1" parent="1">
          <mxGeometry x="490" y="450" width="76.09" height="70" as="geometry" />
        </mxCell>
        <mxCell id="zhX5IbNrJyvcIopZCmzf-15" style="edgeStyle=orthogonalEdgeStyle;rounded=0;orthogonalLoop=1;jettySize=auto;html=1;fillColor=#f8cecc;strokeColor=#b85450;" edge="1" parent="1" source="zhX5IbNrJyvcIopZCmzf-10" target="zhX5IbNrJyvcIopZCmzf-2">
          <mxGeometry relative="1" as="geometry" />
        </mxCell>
        <mxCell id="zhX5IbNrJyvcIopZCmzf-22" value="admin" style="edgeLabel;html=1;align=center;verticalAlign=middle;resizable=0;points=[];" vertex="1" connectable="0" parent="zhX5IbNrJyvcIopZCmzf-15">
          <mxGeometry y="-2" relative="1" as="geometry">
            <mxPoint y="-2" as="offset" />
          </mxGeometry>
        </mxCell>
        <mxCell id="zhX5IbNrJyvcIopZCmzf-10" value="poc.local\law&lt;div&gt;&lt;b&gt;PocAdmins&lt;/b&gt;&lt;/div&gt;" style="sketch=0;outlineConnect=0;fontColor=#232F3E;gradientColor=none;strokeColor=#232F3E;fillColor=#ffffff;dashed=0;verticalLabelPosition=bottom;verticalAlign=top;align=center;html=1;fontSize=12;fontStyle=0;aspect=fixed;shape=mxgraph.aws4.resourceIcon;resIcon=mxgraph.aws4.user;" vertex="1" parent="1">
          <mxGeometry x="90" y="360" width="60" height="60" as="geometry" />
        </mxCell>
        <mxCell id="zhX5IbNrJyvcIopZCmzf-18" style="edgeStyle=orthogonalEdgeStyle;rounded=0;orthogonalLoop=1;jettySize=auto;html=1;fillColor=#dae8fc;strokeColor=#6c8ebf;" edge="1" parent="1" source="zhX5IbNrJyvcIopZCmzf-16" target="zhX5IbNrJyvcIopZCmzf-4">
          <mxGeometry relative="1" as="geometry" />
        </mxCell>
        <mxCell id="zhX5IbNrJyvcIopZCmzf-23" value="user" style="edgeLabel;html=1;align=center;verticalAlign=middle;resizable=0;points=[];" vertex="1" connectable="0" parent="zhX5IbNrJyvcIopZCmzf-18">
          <mxGeometry x="-0.4212" y="-2" relative="1" as="geometry">
            <mxPoint x="-10" as="offset" />
          </mxGeometry>
        </mxCell>
        <mxCell id="zhX5IbNrJyvcIopZCmzf-16" value="poc.local\tyson&lt;div&gt;&lt;b&gt;PocUsers&lt;/b&gt;&lt;/div&gt;" style="sketch=0;outlineConnect=0;fontColor=#232F3E;gradientColor=none;strokeColor=#232F3E;fillColor=#ffffff;dashed=0;verticalLabelPosition=bottom;verticalAlign=top;align=center;html=1;fontSize=12;fontStyle=0;aspect=fixed;shape=mxgraph.aws4.resourceIcon;resIcon=mxgraph.aws4.user;" vertex="1" parent="1">
          <mxGeometry x="710" y="360" width="60" height="60" as="geometry" />
        </mxCell>
        <mxCell id="zhX5IbNrJyvcIopZCmzf-19" style="edgeStyle=orthogonalEdgeStyle;rounded=0;orthogonalLoop=1;jettySize=auto;html=1;fillColor=#dae8fc;strokeColor=#6c8ebf;" edge="1" parent="1" source="zhX5IbNrJyvcIopZCmzf-17" target="zhX5IbNrJyvcIopZCmzf-4">
          <mxGeometry relative="1" as="geometry" />
        </mxCell>
        <mxCell id="zhX5IbNrJyvcIopZCmzf-24" value="user" style="edgeLabel;html=1;align=center;verticalAlign=middle;resizable=0;points=[];" vertex="1" connectable="0" parent="zhX5IbNrJyvcIopZCmzf-19">
          <mxGeometry x="0.1118" y="4" relative="1" as="geometry">
            <mxPoint y="-5" as="offset" />
          </mxGeometry>
        </mxCell>
        <mxCell id="zhX5IbNrJyvcIopZCmzf-17" value="poc.local\travis&lt;div&gt;&lt;b&gt;PocUsers&lt;/b&gt;&lt;/div&gt;" style="sketch=0;outlineConnect=0;fontColor=#232F3E;gradientColor=none;strokeColor=#232F3E;fillColor=#ffffff;dashed=0;verticalLabelPosition=bottom;verticalAlign=top;align=center;html=1;fontSize=12;fontStyle=0;aspect=fixed;shape=mxgraph.aws4.resourceIcon;resIcon=mxgraph.aws4.user;" vertex="1" parent="1">
          <mxGeometry x="710" y="455" width="60" height="60" as="geometry" />
        </mxCell>
        <mxCell id="zhX5IbNrJyvcIopZCmzf-20" style="edgeStyle=orthogonalEdgeStyle;rounded=0;orthogonalLoop=1;jettySize=auto;html=1;entryX=0.013;entryY=0.529;entryDx=0;entryDy=0;entryPerimeter=0;endArrow=none;endFill=0;" edge="1" parent="1" source="zhX5IbNrJyvcIopZCmzf-2" target="zhX5IbNrJyvcIopZCmzf-4">
          <mxGeometry relative="1" as="geometry" />
        </mxCell>
        <mxCell id="zhX5IbNrJyvcIopZCmzf-25" value="Ubuntu-Server&lt;div&gt;192.168.56.10&lt;/div&gt;&lt;div&gt;Ubuntu Server 22.04 LTS&lt;/div&gt;&lt;div&gt;GLPI / Serveur Apache&lt;/div&gt;" style="sketch=0;pointerEvents=1;shadow=0;dashed=0;html=1;strokeColor=none;fillColor=#505050;labelPosition=center;verticalLabelPosition=bottom;verticalAlign=top;outlineConnect=0;align=center;shape=mxgraph.office.servers.web_server;" vertex="1" parent="1">
          <mxGeometry x="280" y="150" width="60" height="70" as="geometry" />
        </mxCell>
        <mxCell id="zhX5IbNrJyvcIopZCmzf-26" value="Kali-Linux&lt;div&gt;192.168.56.11&lt;/div&gt;&lt;div&gt;Kali Linux 2024&amp;nbsp;&lt;/div&gt;" style="image;sketch=0;aspect=fixed;html=1;points=[];align=center;fontSize=12;image=img/lib/mscae/VM_Linux.svg;" vertex="1" parent="1">
          <mxGeometry x="490" y="155.35" width="75.33" height="69.3" as="geometry" />
        </mxCell>
        <mxCell id="zhX5IbNrJyvcIopZCmzf-28" value="&lt;b&gt;poc.local / 192.168.56.0/24&lt;/b&gt;" style="text;html=1;align=center;verticalAlign=middle;resizable=0;points=[];autosize=1;strokeColor=none;fillColor=none;" vertex="1" parent="1">
          <mxGeometry x="505" y="340" width="170" height="30" as="geometry" />
        </mxCell>
        <mxCell id="zhX5IbNrJyvcIopZCmzf-31" value="&lt;b&gt;192.168.56.0/24&lt;/b&gt;" style="text;html=1;align=center;verticalAlign=middle;resizable=0;points=[];autosize=1;strokeColor=none;fillColor=none;" vertex="1" parent="1">
          <mxGeometry x="565" y="90" width="110" height="30" as="geometry" />
        </mxCell>
      </root>
    </mxGraphModel>
  </diagram>
</mxfile>
